<?xml version="1.0" encoding="UTF-8"?>
<svg xmlns="http://www.w3.org/2000/svg" xmlns:xlink="http://www.w3.org/1999/xlink" width="3304.55" height="3304.55" viewBox="0 0 3304.55 3304.55">
<defs>
<clipPath id="clip-0">

</clipPath>
<clipPath id="clip-1">
<path clip-rule="evenodd" d="M 1203.390625 1012.378906 C 1343.160156 842.109375 1533.628906 741.261719 1727.601562 741.261719 C 1883.089844 741.261719 2011.300781 803.511719 2092.878906 909.371094 C 2093.980469 824.089844 2082.710938 746.820312 2034.570312 687.019531 C 1926.300781 570.570312 1721.300781 486.199219 1546.230469 486.199219 C 1468.839844 486.199219 1400.421875 501.679688 1342.820312 532.230469 C 1169.03125 624.410156 1076.210938 690.199219 1066.960938 727.808594 C 1057.730469 765.410156 1167.480469 851.800781 1203.390625 1012.378906 "/>
</clipPath>
<linearGradient id="linear-pattern-0" gradientUnits="userSpaceOnUse" x1="0.231649" y1="0" x2="0.753726" y2="0" gradientTransform="matrix(-0.00004405, -1007.86, 1007.86, -0.00004405, 1579.68, 1245.85)">
<stop offset="0" stop-color="rgb(49.459839%, 25.030518%, 4.217529%)" stop-opacity="1"/>
<stop offset="0.03125" stop-color="rgb(49.349976%, 24.972534%, 4.171753%)" stop-opacity="1"/>
<stop offset="0.0625" stop-color="rgb(49.133301%, 24.858093%, 4.083252%)" stop-opacity="1"/>
<stop offset="0.09375" stop-color="rgb(48.9151%, 24.742126%, 3.993225%)" stop-opacity="1"/>
<stop offset="0.125" stop-color="rgb(48.698425%, 24.627686%, 3.903198%)" stop-opacity="1"/>
<stop offset="0.15625" stop-color="rgb(48.480225%, 24.511719%, 3.814697%)" stop-opacity="1"/>
<stop offset="0.1875" stop-color="rgb(48.262024%, 24.397278%, 3.72467%)" stop-opacity="1"/>
<stop offset="0.21875" stop-color="rgb(48.045349%, 24.281311%, 3.634644%)" stop-opacity="1"/>
<stop offset="0.25" stop-color="rgb(47.827148%, 24.16687%, 3.544617%)" stop-opacity="1"/>
<stop offset="0.28125" stop-color="rgb(47.610474%, 24.050903%, 3.456116%)" stop-opacity="1"/>
<stop offset="0.3125" stop-color="rgb(47.392273%, 23.936462%, 3.366089%)" stop-opacity="1"/>
<stop offset="0.34375" stop-color="rgb(47.175598%, 23.820496%, 3.276062%)" stop-opacity="1"/>
<stop offset="0.375" stop-color="rgb(46.957397%, 23.706055%, 3.187561%)" stop-opacity="1"/>
<stop offset="0.40625" stop-color="rgb(46.740723%, 23.590088%, 3.097534%)" stop-opacity="1"/>
<stop offset="0.4375" stop-color="rgb(46.522522%, 23.475647%, 3.007507%)" stop-opacity="1"/>
<stop offset="0.46875" stop-color="rgb(46.304321%, 23.361206%, 2.919006%)" stop-opacity="1"/>
<stop offset="0.5" stop-color="rgb(46.087646%, 23.245239%, 2.828979%)" stop-opacity="1"/>
<stop offset="0.53125" stop-color="rgb(45.869446%, 23.130798%, 2.738953%)" stop-opacity="1"/>
<stop offset="0.5625" stop-color="rgb(45.652771%, 23.014832%, 2.648926%)" stop-opacity="1"/>
<stop offset="0.59375" stop-color="rgb(45.43457%, 22.900391%, 2.560425%)" stop-opacity="1"/>
<stop offset="0.625" stop-color="rgb(45.217896%, 22.784424%, 2.470398%)" stop-opacity="1"/>
<stop offset="0.65625" stop-color="rgb(44.999695%, 22.669983%, 2.380371%)" stop-opacity="1"/>
<stop offset="0.6875" stop-color="rgb(44.781494%, 22.554016%, 2.29187%)" stop-opacity="1"/>
<stop offset="0.71875" stop-color="rgb(44.564819%, 22.439575%, 2.201843%)" stop-opacity="1"/>
<stop offset="0.75" stop-color="rgb(44.346619%, 22.323608%, 2.111816%)" stop-opacity="1"/>
<stop offset="0.78125" stop-color="rgb(44.129944%, 22.209167%, 2.023315%)" stop-opacity="1"/>
<stop offset="0.8125" stop-color="rgb(43.911743%, 22.093201%, 1.933289%)" stop-opacity="1"/>
<stop offset="0.84375" stop-color="rgb(43.695068%, 21.97876%, 1.843262%)" stop-opacity="1"/>
<stop offset="0.875" stop-color="rgb(43.476868%, 21.862793%, 1.753235%)" stop-opacity="1"/>
<stop offset="0.90625" stop-color="rgb(43.260193%, 21.748352%, 1.664734%)" stop-opacity="1"/>
<stop offset="0.9375" stop-color="rgb(43.041992%, 21.632385%, 1.574707%)" stop-opacity="1"/>
<stop offset="0.96875" stop-color="rgb(42.823792%, 21.517944%, 1.48468%)" stop-opacity="1"/>
<stop offset="1" stop-color="rgb(42.607117%, 21.401978%, 1.396179%)" stop-opacity="1"/>
</linearGradient>
<clipPath id="clip-2">
<path clip-rule="nonzero" d="M 1213 853 L 2078 853 L 2078 1806 L 1213 1806 Z M 1213 853 "/>
</clipPath>
<clipPath id="clip-3">
<path clip-rule="evenodd" d="M 1727.628906 853.488281 C 1572.050781 853.488281 1356.660156 943.519531 1213.640625 1195.101562 L 1213.640625 1409.75 C 1213.640625 1630.921875 1394.410156 1805.609375 1609.5 1805.609375 C 1738.660156 1805.609375 1785.148438 1808.371094 1902.769531 1738.058594 C 2008.199219 1666.878906 2077.671875 1546.269531 2077.671875 1409.75 L 2077.671875 1217.671875 C 2077.410156 1210.179688 2077.25 1202.679688 2077.199219 1195.109375 C 2068.261719 987.558594 1931.160156 853.488281 1727.628906 853.488281 "/>
</clipPath>
<linearGradient id="linear-pattern-1" gradientUnits="userSpaceOnUse" x1="0.00406234" y1="0" x2="0.998692" y2="0" gradientTransform="matrix(0.00001145, 960.036, -960.036, 0.00001145, 1645.66, 849.59)">
<stop offset="0" stop-color="rgb(86.308289%, 64.744568%, 40.814209%)" stop-opacity="1"/>
<stop offset="0.03125" stop-color="rgb(86.442566%, 64.897156%, 40.930176%)" stop-opacity="1"/>
<stop offset="0.0625" stop-color="rgb(86.711121%, 65.202332%, 41.160583%)" stop-opacity="1"/>
<stop offset="0.09375" stop-color="rgb(86.979675%, 65.505981%, 41.392517%)" stop-opacity="1"/>
<stop offset="0.125" stop-color="rgb(87.246704%, 65.811157%, 41.624451%)" stop-opacity="1"/>
<stop offset="0.15625" stop-color="rgb(87.515259%, 66.116333%, 41.856384%)" stop-opacity="1"/>
<stop offset="0.1875" stop-color="rgb(87.783813%, 66.419983%, 42.086792%)" stop-opacity="1"/>
<stop offset="0.21875" stop-color="rgb(88.052368%, 66.725159%, 42.318726%)" stop-opacity="1"/>
<stop offset="0.25" stop-color="rgb(88.319397%, 67.030334%, 42.550659%)" stop-opacity="1"/>
<stop offset="0.28125" stop-color="rgb(88.587952%, 67.33551%, 42.782593%)" stop-opacity="1"/>
<stop offset="0.3125" stop-color="rgb(88.856506%, 67.63916%, 43.014526%)" stop-opacity="1"/>
<stop offset="0.34375" stop-color="rgb(89.123535%, 67.944336%, 43.244934%)" stop-opacity="1"/>
<stop offset="0.375" stop-color="rgb(89.39209%, 68.249512%, 43.476868%)" stop-opacity="1"/>
<stop offset="0.40625" stop-color="rgb(89.660645%, 68.553162%, 43.708801%)" stop-opacity="1"/>
<stop offset="0.4375" stop-color="rgb(89.929199%, 68.858337%, 43.940735%)" stop-opacity="1"/>
<stop offset="0.46875" stop-color="rgb(90.196228%, 69.163513%, 44.171143%)" stop-opacity="1"/>
<stop offset="0.5" stop-color="rgb(90.464783%, 69.468689%, 44.403076%)" stop-opacity="1"/>
<stop offset="0.53125" stop-color="rgb(90.733337%, 69.772339%, 44.63501%)" stop-opacity="1"/>
<stop offset="0.5625" stop-color="rgb(91.001892%, 70.077515%, 44.866943%)" stop-opacity="1"/>
<stop offset="0.59375" stop-color="rgb(91.268921%, 70.38269%, 45.097351%)" stop-opacity="1"/>
<stop offset="0.625" stop-color="rgb(91.537476%, 70.68634%, 45.329285%)" stop-opacity="1"/>
<stop offset="0.65625" stop-color="rgb(91.80603%, 70.991516%, 45.561218%)" stop-opacity="1"/>
<stop offset="0.6875" stop-color="rgb(92.074585%, 71.296692%, 45.793152%)" stop-opacity="1"/>
<stop offset="0.71875" stop-color="rgb(92.341614%, 71.600342%, 46.025085%)" stop-opacity="1"/>
<stop offset="0.75" stop-color="rgb(92.610168%, 71.905518%, 46.255493%)" stop-opacity="1"/>
<stop offset="0.78125" stop-color="rgb(92.878723%, 72.210693%, 46.487427%)" stop-opacity="1"/>
<stop offset="0.8125" stop-color="rgb(93.147278%, 72.515869%, 46.71936%)" stop-opacity="1"/>
<stop offset="0.84375" stop-color="rgb(93.414307%, 72.819519%, 46.951294%)" stop-opacity="1"/>
<stop offset="0.875" stop-color="rgb(93.682861%, 73.124695%, 47.181702%)" stop-opacity="1"/>
<stop offset="0.90625" stop-color="rgb(93.951416%, 73.429871%, 47.413635%)" stop-opacity="1"/>
<stop offset="0.9375" stop-color="rgb(94.219971%, 73.733521%, 47.645569%)" stop-opacity="1"/>
<stop offset="0.96875" stop-color="rgb(94.487%, 74.038696%, 47.877502%)" stop-opacity="1"/>
<stop offset="1" stop-color="rgb(94.755554%, 74.343872%, 48.109436%)" stop-opacity="1"/>
</linearGradient>
<clipPath id="clip-4">
<path clip-rule="nonzero" d="M 1347 1870 L 1958 1870 L 1958 2383 L 1347 2383 Z M 1347 1870 "/>
</clipPath>
<clipPath id="clip-5">
<path clip-rule="evenodd" d="M 1896.28125 1870.300781 C 1760.511719 1933.761719 1544.488281 1935.828125 1406.628906 1875.558594 L 1347.320312 2062.378906 L 1652.378906 2382.949219 L 1957.269531 2062.460938 L 1896.28125 1870.300781 "/>
</clipPath>
<linearGradient id="linear-pattern-2" gradientUnits="userSpaceOnUse" x1="0.0479199" y1="0" x2="0.952084" y2="0" gradientTransform="matrix(0.00000676, 566.988, -566.988, 0.00000676, 1652.29, 1843.13)">
<stop offset="0" stop-color="rgb(86.686707%, 65.174866%, 41.140747%)" stop-opacity="1"/>
<stop offset="0.03125" stop-color="rgb(86.808777%, 65.313721%, 41.246033%)" stop-opacity="1"/>
<stop offset="0.0625" stop-color="rgb(87.052917%, 65.589905%, 41.456604%)" stop-opacity="1"/>
<stop offset="0.09375" stop-color="rgb(87.297058%, 65.867615%, 41.667175%)" stop-opacity="1"/>
<stop offset="0.125" stop-color="rgb(87.539673%, 66.143799%, 41.877747%)" stop-opacity="1"/>
<stop offset="0.15625" stop-color="rgb(87.783813%, 66.421509%, 42.088318%)" stop-opacity="1"/>
<stop offset="0.1875" stop-color="rgb(88.027954%, 66.697693%, 42.298889%)" stop-opacity="1"/>
<stop offset="0.21875" stop-color="rgb(88.272095%, 66.975403%, 42.50946%)" stop-opacity="1"/>
<stop offset="0.25" stop-color="rgb(88.514709%, 67.251587%, 42.720032%)" stop-opacity="1"/>
<stop offset="0.28125" stop-color="rgb(88.75885%, 67.529297%, 42.930603%)" stop-opacity="1"/>
<stop offset="0.3125" stop-color="rgb(89.002991%, 67.805481%, 43.141174%)" stop-opacity="1"/>
<stop offset="0.34375" stop-color="rgb(89.247131%, 68.083191%, 43.351746%)" stop-opacity="1"/>
<stop offset="0.375" stop-color="rgb(89.489746%, 68.360901%, 43.562317%)" stop-opacity="1"/>
<stop offset="0.40625" stop-color="rgb(89.733887%, 68.637085%, 43.772888%)" stop-opacity="1"/>
<stop offset="0.4375" stop-color="rgb(89.978027%, 68.914795%, 43.983459%)" stop-opacity="1"/>
<stop offset="0.46875" stop-color="rgb(90.222168%, 69.190979%, 44.192505%)" stop-opacity="1"/>
<stop offset="0.5" stop-color="rgb(90.464783%, 69.468689%, 44.403076%)" stop-opacity="1"/>
<stop offset="0.53125" stop-color="rgb(90.708923%, 69.744873%, 44.613647%)" stop-opacity="1"/>
<stop offset="0.5625" stop-color="rgb(90.953064%, 70.022583%, 44.824219%)" stop-opacity="1"/>
<stop offset="0.59375" stop-color="rgb(91.197205%, 70.298767%, 45.03479%)" stop-opacity="1"/>
<stop offset="0.625" stop-color="rgb(91.439819%, 70.576477%, 45.245361%)" stop-opacity="1"/>
<stop offset="0.65625" stop-color="rgb(91.68396%, 70.852661%, 45.455933%)" stop-opacity="1"/>
<stop offset="0.6875" stop-color="rgb(91.928101%, 71.130371%, 45.666504%)" stop-opacity="1"/>
<stop offset="0.71875" stop-color="rgb(92.172241%, 71.408081%, 45.877075%)" stop-opacity="1"/>
<stop offset="0.75" stop-color="rgb(92.414856%, 71.684265%, 46.087646%)" stop-opacity="1"/>
<stop offset="0.78125" stop-color="rgb(92.658997%, 71.961975%, 46.298218%)" stop-opacity="1"/>
<stop offset="0.8125" stop-color="rgb(92.903137%, 72.238159%, 46.508789%)" stop-opacity="1"/>
<stop offset="0.84375" stop-color="rgb(93.147278%, 72.515869%, 46.71936%)" stop-opacity="1"/>
<stop offset="0.875" stop-color="rgb(93.391418%, 72.792053%, 46.929932%)" stop-opacity="1"/>
<stop offset="0.90625" stop-color="rgb(93.634033%, 73.069763%, 47.140503%)" stop-opacity="1"/>
<stop offset="0.9375" stop-color="rgb(93.878174%, 73.345947%, 47.351074%)" stop-opacity="1"/>
<stop offset="0.96875" stop-color="rgb(94.122314%, 73.623657%, 47.561646%)" stop-opacity="1"/>
<stop offset="1" stop-color="rgb(94.366455%, 73.899841%, 47.772217%)" stop-opacity="1"/>
</linearGradient>
<clipPath id="clip-6">
<path clip-rule="nonzero" d="M 604 2133 L 2700 2133 L 2700 3193 L 604 3193 Z M 604 2133 "/>
</clipPath>
<clipPath id="clip-7">
<path clip-rule="evenodd" d="M 1693.011719 2503.039062 C 1671.839844 2525.308594 1632.929688 2525.359375 1611.691406 2503.058594 L 1259.710938 2133.191406 L 1038.820312 2133.191406 C 799.609375 2133.191406 604.984375 2339.769531 604.984375 2593.730469 L 604.984375 2780.210938 C 694.5625 2863.449219 794.027344 2936.199219 901.414062 2996.460938 L 901.414062 2767 C 901.414062 2693.121094 1013.648438 2693.121094 1013.648438 2767 L 1013.648438 3053.53125 C 1418.210938 3238.699219 1886.328125 3238.648438 2290.890625 3053.53125 L 2290.890625 2767 C 2290.890625 2693.121094 2403.121094 2693.121094 2403.121094 2767 L 2403.121094 2996.460938 C 2510.550781 2936.199219 2610.011719 2863.449219 2699.609375 2780.210938 L 2699.609375 2593.730469 C 2699.609375 2339.800781 2504.980469 2133.191406 2265.75 2133.191406 L 2044.859375 2133.191406 L 1693.011719 2503.039062 "/>
</clipPath>
<linearGradient id="linear-pattern-3" gradientUnits="userSpaceOnUse" x1="0.182498" y1="0" x2="0.845266" y2="0" gradientTransform="matrix(0.00001989, 1668.02, -1668.02, 0.00001989, 1652.29, 1828.78)">
<stop offset="0" stop-color="rgb(13.650513%, 45.69397%, 64.942932%)" stop-opacity="1"/>
<stop offset="0.015625" stop-color="rgb(13.626099%, 45.887756%, 65.127563%)" stop-opacity="1"/>
<stop offset="0.03125" stop-color="rgb(13.577271%, 46.278381%, 65.496826%)" stop-opacity="1"/>
<stop offset="0.046875" stop-color="rgb(13.528442%, 46.66748%, 65.867615%)" stop-opacity="1"/>
<stop offset="0.0625" stop-color="rgb(13.479614%, 47.058105%, 66.236877%)" stop-opacity="1"/>
<stop offset="0.078125" stop-color="rgb(13.430786%, 47.447205%, 66.60614%)" stop-opacity="1"/>
<stop offset="0.09375" stop-color="rgb(13.381958%, 47.83783%, 66.975403%)" stop-opacity="1"/>
<stop offset="0.109375" stop-color="rgb(13.33313%, 48.226929%, 67.344666%)" stop-opacity="1"/>
<stop offset="0.125" stop-color="rgb(13.284302%, 48.617554%, 67.715454%)" stop-opacity="1"/>
<stop offset="0.140625" stop-color="rgb(13.235474%, 49.006653%, 68.084717%)" stop-opacity="1"/>
<stop offset="0.15625" stop-color="rgb(13.186646%, 49.397278%, 68.453979%)" stop-opacity="1"/>
<stop offset="0.171875" stop-color="rgb(13.137817%, 49.786377%, 68.823242%)" stop-opacity="1"/>
<stop offset="0.1875" stop-color="rgb(13.088989%, 50.177002%, 69.192505%)" stop-opacity="1"/>
<stop offset="0.203125" stop-color="rgb(13.041687%, 50.566101%, 69.563293%)" stop-opacity="1"/>
<stop offset="0.21875" stop-color="rgb(12.992859%, 50.956726%, 69.932556%)" stop-opacity="1"/>
<stop offset="0.234375" stop-color="rgb(12.944031%, 51.345825%, 70.301819%)" stop-opacity="1"/>
<stop offset="0.25" stop-color="rgb(12.895203%, 51.73645%, 70.671082%)" stop-opacity="1"/>
<stop offset="0.265625" stop-color="rgb(12.846375%, 52.125549%, 71.040344%)" stop-opacity="1"/>
<stop offset="0.28125" stop-color="rgb(12.797546%, 52.516174%, 71.411133%)" stop-opacity="1"/>
<stop offset="0.296875" stop-color="rgb(12.748718%, 52.905273%, 71.780396%)" stop-opacity="1"/>
<stop offset="0.3125" stop-color="rgb(12.69989%, 53.295898%, 72.149658%)" stop-opacity="1"/>
<stop offset="0.328125" stop-color="rgb(12.651062%, 53.684998%, 72.518921%)" stop-opacity="1"/>
<stop offset="0.34375" stop-color="rgb(12.602234%, 54.075623%, 72.888184%)" stop-opacity="1"/>
<stop offset="0.359375" stop-color="rgb(12.553406%, 54.464722%, 73.257446%)" stop-opacity="1"/>
<stop offset="0.375" stop-color="rgb(12.504578%, 54.855347%, 73.628235%)" stop-opacity="1"/>
<stop offset="0.390625" stop-color="rgb(12.45575%, 55.244446%, 73.997498%)" stop-opacity="1"/>
<stop offset="0.40625" stop-color="rgb(12.406921%, 55.635071%, 74.36676%)" stop-opacity="1"/>
<stop offset="0.421875" stop-color="rgb(12.358093%, 56.02417%, 74.736023%)" stop-opacity="1"/>
<stop offset="0.4375" stop-color="rgb(12.309265%, 56.414795%, 75.105286%)" stop-opacity="1"/>
<stop offset="0.453125" stop-color="rgb(12.261963%, 56.803894%, 75.476074%)" stop-opacity="1"/>
<stop offset="0.46875" stop-color="rgb(12.213135%, 57.194519%, 75.845337%)" stop-opacity="1"/>
<stop offset="0.484375" stop-color="rgb(12.164307%, 57.583618%, 76.2146%)" stop-opacity="1"/>
<stop offset="0.5" stop-color="rgb(12.115479%, 57.974243%, 76.583862%)" stop-opacity="1"/>
<stop offset="0.515625" stop-color="rgb(12.06665%, 58.363342%, 76.953125%)" stop-opacity="1"/>
<stop offset="0.53125" stop-color="rgb(12.017822%, 58.753967%, 77.323914%)" stop-opacity="1"/>
<stop offset="0.546875" stop-color="rgb(11.968994%, 59.143066%, 77.693176%)" stop-opacity="1"/>
<stop offset="0.5625" stop-color="rgb(11.920166%, 59.533691%, 78.062439%)" stop-opacity="1"/>
<stop offset="0.578125" stop-color="rgb(11.871338%, 59.922791%, 78.431702%)" stop-opacity="1"/>
<stop offset="0.59375" stop-color="rgb(11.82251%, 60.313416%, 78.800964%)" stop-opacity="1"/>
<stop offset="0.609375" stop-color="rgb(11.773682%, 60.702515%, 79.171753%)" stop-opacity="1"/>
<stop offset="0.625" stop-color="rgb(11.724854%, 61.09314%, 79.541016%)" stop-opacity="1"/>
<stop offset="0.640625" stop-color="rgb(11.676025%, 61.482239%, 79.910278%)" stop-opacity="1"/>
<stop offset="0.65625" stop-color="rgb(11.627197%, 61.872864%, 80.279541%)" stop-opacity="1"/>
<stop offset="0.671875" stop-color="rgb(11.578369%, 62.261963%, 80.648804%)" stop-opacity="1"/>
<stop offset="0.6875" stop-color="rgb(11.529541%, 62.652588%, 81.019592%)" stop-opacity="1"/>
<stop offset="0.703125" stop-color="rgb(11.482239%, 63.041687%, 81.388855%)" stop-opacity="1"/>
<stop offset="0.71875" stop-color="rgb(11.433411%, 63.432312%, 81.758118%)" stop-opacity="1"/>
<stop offset="0.734375" stop-color="rgb(11.384583%, 63.821411%, 82.12738%)" stop-opacity="1"/>
<stop offset="0.75" stop-color="rgb(11.335754%, 64.212036%, 82.496643%)" stop-opacity="1"/>
<stop offset="0.765625" stop-color="rgb(11.286926%, 64.601135%, 82.867432%)" stop-opacity="1"/>
<stop offset="0.78125" stop-color="rgb(11.238098%, 64.99176%, 83.236694%)" stop-opacity="1"/>
<stop offset="0.796875" stop-color="rgb(11.18927%, 65.380859%, 83.605957%)" stop-opacity="1"/>
<stop offset="0.8125" stop-color="rgb(11.140442%, 65.771484%, 83.97522%)" stop-opacity="1"/>
<stop offset="0.828125" stop-color="rgb(11.091614%, 66.160583%, 84.344482%)" stop-opacity="1"/>
<stop offset="0.84375" stop-color="rgb(11.042786%, 66.551208%, 84.713745%)" stop-opacity="1"/>
<stop offset="0.859375" stop-color="rgb(10.993958%, 66.940308%, 85.084534%)" stop-opacity="1"/>
<stop offset="0.875" stop-color="rgb(10.945129%, 67.330933%, 85.453796%)" stop-opacity="1"/>
<stop offset="0.890625" stop-color="rgb(10.896301%, 67.720032%, 85.823059%)" stop-opacity="1"/>
<stop offset="0.90625" stop-color="rgb(10.847473%, 68.110657%, 86.192322%)" stop-opacity="1"/>
<stop offset="0.921875" stop-color="rgb(10.798645%, 68.499756%, 86.561584%)" stop-opacity="1"/>
<stop offset="0.9375" stop-color="rgb(10.749817%, 68.890381%, 86.932373%)" stop-opacity="1"/>
<stop offset="0.953125" stop-color="rgb(10.702515%, 69.27948%, 87.301636%)" stop-opacity="1"/>
<stop offset="0.96875" stop-color="rgb(10.653687%, 69.670105%, 87.670898%)" stop-opacity="1"/>
<stop offset="0.984375" stop-color="rgb(10.604858%, 70.059204%, 88.040161%)" stop-opacity="1"/>
<stop offset="1" stop-color="rgb(10.55603%, 70.449829%, 88.409424%)" stop-opacity="1"/>
</linearGradient>
<clipPath id="clip-8">
<path clip-rule="nonzero" d="M 112 112 L 3193 112 L 3193 2665 L 112 2665 Z M 112 112 "/>
</clipPath>
<clipPath id="clip-9">
<path clip-rule="evenodd" d="M 2061.828125 2020.929688 L 2265.808594 2020.929688 C 2566.941406 2020.929688 2811.921875 2277.921875 2811.921875 2593.730469 L 2811.921875 2664.511719 C 3048.671875 2393.671875 3192.320312 2039.429688 3192.320312 1652.269531 C 3192.320312 803.089844 2501.460938 112.21875 1652.269531 112.21875 C 803.089844 112.21875 112.257812 803.089844 112.257812 1652.269531 C 112.257812 2039.5 255.929688 2393.769531 492.75 2664.621094 L 492.75 2593.730469 C 492.75 2277.921875 737.726562 2020.929688 1038.859375 2020.929688 L 1242.730469 2020.929688 L 1307.191406 1817.878906 C 1182.410156 1725.210938 1101.410156 1576.769531 1101.410156 1409.75 L 1101.609375 1175.679688 C 1124.640625 893.859375 922.664062 844.589844 957.964844 701.011719 C 977.109375 623.121094 1064.050781 553.03125 1290.21875 433.089844 C 1549.941406 295.351562 1940.851562 418.339844 2118.25 612.191406 C 2257.640625 764.511719 2185.910156 1025.21875 2189.429688 1192.539062 L 2189.898438 1409.75 C 2189.898438 1571.96875 2113.519531 1716.648438 1994.800781 1809.738281 L 2061.828125 2020.929688 "/>
</clipPath>
<linearGradient id="linear-pattern-4" gradientUnits="userSpaceOnUse" x1="0.447124" y1="0" x2="0.55287" y2="0" gradientTransform="matrix(-0.00105506, -24137, 24137, -0.00105506, 1652.29, 13456.85)">
<stop offset="0" stop-color="rgb(82.406616%, 82.757568%, 82.891846%)" stop-opacity="1"/>
<stop offset="0.25" stop-color="rgb(82.244873%, 82.606506%, 82.756042%)" stop-opacity="1"/>
<stop offset="0.5" stop-color="rgb(81.924438%, 82.305908%, 82.485962%)" stop-opacity="1"/>
<stop offset="0.75" stop-color="rgb(81.602478%, 82.00531%, 82.217407%)" stop-opacity="1"/>
<stop offset="1" stop-color="rgb(81.282043%, 81.704712%, 81.947327%)" stop-opacity="1"/>
</linearGradient>
</defs>
<path fill-rule="evenodd" fill="rgb(19.993591%, 19.993591%, 19.993591%)" fill-opacity="1" d="M 1546.230469 486.199219 C 1468.839844 486.199219 1400.421875 501.679688 1342.820312 532.230469 C 1169.03125 624.410156 1076.210938 690.199219 1066.960938 727.808594 C 1057.730469 765.410156 1167.480469 851.800781 1203.390625 1012.378906 C 1343.160156 842.109375 1533.628906 741.261719 1727.601562 741.261719 C 1883.089844 741.261719 2011.300781 803.511719 2092.878906 909.371094 C 2093.980469 824.089844 2082.710938 746.820312 2034.570312 687.019531 C 1926.300781 570.570312 1721.300781 486.199219 1546.230469 486.199219 Z M 2077.671875 1217.671875 C 2077.410156 1210.179688 2077.25 1202.679688 2077.199219 1195.109375 C 2068.261719 987.558594 1931.160156 853.488281 1727.628906 853.488281 C 1572.050781 853.488281 1356.660156 943.519531 1213.640625 1195.101562 L 1213.640625 1409.75 C 1213.640625 1630.921875 1394.410156 1805.609375 1609.5 1805.609375 C 1738.660156 1805.609375 1785.148438 1808.371094 1902.769531 1738.058594 C 2008.199219 1666.878906 2077.671875 1546.269531 2077.671875 1409.75 Z M 1347.320312 2062.378906 L 1406.628906 1875.558594 C 1544.488281 1935.828125 1760.511719 1933.761719 1896.28125 1870.300781 L 1957.269531 2062.460938 L 1652.378906 2382.949219 Z M 518.046875 2852.5 C 512.371094 2848.738281 507.421875 2844.011719 503.429688 2838.519531 C 193.167969 2537.988281 0 2117.300781 0 1652.269531 C 0 741.210938 741.207031 0 1652.269531 0 C 2563.339844 0 3304.550781 741.210938 3304.550781 1652.269531 C 3304.550781 2117.21875 3111.449219 2537.859375 2801.300781 2838.371094 C 2726.628906 2924.699219 2474.460938 3098.890625 2364.378906 3143.039062 C 2148.640625 3246.53125 1907.101562 3304.550781 1652.269531 3304.550781 C 1224.691406 3304.550781 824.035156 3141.78125 518.046875 2852.5 Z M 2811.921875 2664.511719 L 2811.921875 2593.730469 C 2811.921875 2277.921875 2566.941406 2020.929688 2265.808594 2020.929688 L 2061.828125 2020.929688 L 1994.800781 1809.738281 C 2113.519531 1716.648438 2189.898438 1571.96875 2189.898438 1409.75 L 2189.429688 1192.539062 C 2185.910156 1025.21875 2257.640625 764.511719 2118.25 612.191406 C 1940.851562 418.339844 1549.941406 295.351562 1290.21875 433.089844 C 1064.050781 553.03125 977.109375 623.121094 957.964844 701.011719 C 922.664062 844.589844 1124.640625 893.859375 1101.609375 1175.679688 L 1101.410156 1409.75 C 1101.410156 1576.769531 1182.410156 1725.210938 1307.191406 1817.878906 L 1242.730469 2020.929688 L 1038.859375 2020.929688 C 737.726562 2020.929688 492.75 2277.921875 492.75 2593.730469 L 492.75 2664.621094 C 255.929688 2393.769531 112.257812 2039.5 112.257812 1652.269531 C 112.257812 803.089844 803.089844 112.21875 1652.269531 112.21875 C 2501.460938 112.21875 3192.320312 803.089844 3192.320312 1652.269531 C 3192.320312 2039.429688 3048.671875 2393.671875 2811.921875 2664.511719 Z M 2290.890625 3053.53125 L 2290.890625 2767 C 2290.890625 2693.121094 2403.121094 2693.121094 2403.121094 2767 L 2403.121094 2996.460938 C 2510.550781 2936.199219 2610.011719 2863.449219 2699.609375 2780.210938 L 2699.609375 2593.730469 C 2699.609375 2339.800781 2504.980469 2133.191406 2265.75 2133.191406 L 2044.859375 2133.191406 L 1693.011719 2503.039062 C 1671.839844 2525.308594 1632.929688 2525.359375 1611.691406 2503.058594 L 1259.710938 2133.191406 L 1038.820312 2133.191406 C 799.609375 2133.191406 604.984375 2339.769531 604.984375 2593.730469 L 604.984375 2780.210938 C 694.5625 2863.449219 794.027344 2936.199219 901.414062 2996.460938 L 901.414062 2767 C 901.414062 2693.121094 1013.648438 2693.121094 1013.648438 2767 L 1013.648438 3053.53125 C 1418.210938 3238.699219 1886.328125 3238.648438 2290.890625 3053.53125 "/>
<g clip-path="url(#clip-0)">
<g clip-path="url(#clip-1)">
<path fill-rule="nonzero" fill="url(#linear-pattern-0)" d="M 1057.730469 1012.378906 L 2093.980469 1012.378906 L 2093.980469 486.199219 L 1057.730469 486.199219 Z M 1057.730469 1012.378906 "/>
</g>
</g>
<g clip-path="url(#clip-2)">
<g clip-path="url(#clip-3)">
<path fill-rule="nonzero" fill="url(#linear-pattern-1)" d="M 2077.671875 853.488281 L 1213.640625 853.488281 L 1213.640625 1808.371094 L 2077.671875 1808.371094 Z M 2077.671875 853.488281 "/>
</g>
</g>
<g clip-path="url(#clip-4)">
<g clip-path="url(#clip-5)">
<path fill-rule="nonzero" fill="url(#linear-pattern-2)" d="M 1957.269531 1870.300781 L 1347.320312 1870.300781 L 1347.320312 2382.949219 L 1957.269531 2382.949219 Z M 1957.269531 1870.300781 "/>
</g>
</g>
<g clip-path="url(#clip-6)">
<g clip-path="url(#clip-7)">
<path fill-rule="nonzero" fill="url(#linear-pattern-3)" d="M 2699.609375 2133.191406 L 604.984375 2133.191406 L 604.984375 3238.699219 L 2699.609375 3238.699219 Z M 2699.609375 2133.191406 "/>
</g>
</g>
<g clip-path="url(#clip-8)">
<g clip-path="url(#clip-9)">
<path fill-rule="nonzero" fill="url(#linear-pattern-4)" d="M 112.257812 2664.621094 L 3192.320312 2664.621094 L 3192.320312 112.21875 L 112.257812 112.21875 Z M 112.257812 2664.621094 "/>
</g>
</g>
</svg>
